<?xml version="1.0" standalone="no"?>
<!DOCTYPE svg PUBLIC "-//W3C//DTD SVG 20010904//EN"
 "http://www.w3.org/TR/2001/REC-SVG-20010904/DTD/svg10.dtd">
<svg version="1.0" xmlns="http://www.w3.org/2000/svg"
 width="1080.000000pt" height="1080.000000pt" viewBox="0 0 1080.000000 1080.000000"
 preserveAspectRatio="xMidYMid meet">

<g transform="translate(0.000000,1080.000000) scale(0.100000,-0.100000)"
fill="#000000" stroke="none">
<path d="M5919 7431 c-36 -36 -38 -75 -6 -122 62 -92 200 -31 173 76 -19 76
-111 101 -167 46z"/>
<path d="M7226 7313 c-10 -21 -24 -48 -32 -61 -14 -21 -16 -21 -44 -7 -35 18
-34 22 -15 -78 8 -43 15 -85 15 -93 0 -25 -22 -15 -57 26 -36 42 -53 50 -53
25 0 -22 -21 -27 -68 -16 -47 10 -46 12 -30 -59 11 -48 10 -54 -7 -66 -22 -16
-29 -7 78 -99 65 -56 68 -60 62 -93 -5 -29 -4 -33 12 -28 10 2 48 8 86 12 l67
6 0 -96 c0 -57 4 -96 10 -96 6 0 10 39 10 96 l0 96 68 -6 c37 -4 75 -10 85
-12 16 -5 17 -1 12 28 -6 33 -3 37 62 93 107 92 100 83 78 99 -17 12 -18 18
-7 66 16 71 17 69 -30 59 -47 -11 -68 -6 -68 16 0 25 -17 17 -53 -25 -35 -41
-57 -51 -57 -26 0 8 7 50 15 93 19 100 20 96 -15 78 -28 -14 -30 -14 -44 7 -8
13 -22 40 -32 61 -10 20 -21 37 -24 37 -3 0 -14 -17 -24 -37z"/>
<path d="M6313 7234 c-3 -8 -6 -38 -7 -66 l-1 -52 43 -12 c88 -26 139 -74 163
-152 31 -103 -59 -226 -226 -307 -30 -15 -61 -20 -125 -20 -94 0 -125 12 -179
66 -42 41 -57 74 -64 132 -9 69 -18 77 -92 77 -71 0 -75 -5 -68 -84 18 -212
235 -381 466 -363 96 7 120 13 186 44 117 55 210 143 262 250 34 67 33 197 -1
263 -33 65 -59 97 -118 145 -78 64 -226 113 -239 79z"/>
<path d="M5614 7165 c-28 -19 -48 -68 -40 -98 10 -40 45 -76 80 -83 99 -18
161 107 84 171 -34 29 -91 34 -124 10z"/>
<path d="M7850 7113 c-1 -5 -72 -591 -158 -1303 l-158 -1295 210 -3 c115 -1
210 -1 211 0 3 3 316 2587 315 2601 0 4 -94 7 -210 7 -115 0 -210 -3 -210 -7z"/>
<path d="M10055 7086 c-58 -27 -104 -73 -137 -136 -31 -61 -32 -167 -1 -225
49 -92 146 -155 238 -155 96 0 199 70 246 167 17 35 20 58 17 116 -3 62 -8 80
-37 125 -76 118 -211 163 -326 108z"/>
<path d="M796 7014 c-7 -43 -306 -2484 -306 -2496 0 -4 101 -8 225 -8 160 0
225 3 225 11 0 15 108 901 116 952 l6 37 122 0 c112 0 126 -2 157 -23 30 -20
57 -73 234 -464 110 -243 209 -451 220 -464 40 -44 71 -49 305 -49 121 0 220
3 220 6 0 16 -455 953 -478 984 -14 19 -42 49 -61 67 l-36 31 40 17 c102 43
131 58 193 99 234 156 364 404 364 696 -1 188 -48 318 -156 426 -92 90 -210
149 -381 186 -80 18 -140 21 -546 25 l-457 5 -6 -38z m887 -343 c89 -35 137
-77 177 -155 34 -67 35 -72 34 -180 -1 -161 -36 -257 -126 -353 -59 -61 -109
-93 -198 -124 -57 -20 -91 -23 -269 -27 l-203 -4 6 38 c3 22 26 203 51 404 25
201 47 380 51 398 l5 34 207 -4 c187 -4 213 -6 265 -27z"/>
<path d="M8932 6844 c-33 -23 -40 -40 -117 -304 l-72 -245 -64 -11 c-35 -7
-96 -17 -135 -24 -82 -13 -78 -6 -90 -150 -10 -113 -2 -120 128 -120 90 0 98
-2 98 -19 0 -11 -25 -223 -56 -473 -69 -557 -75 -659 -45 -754 37 -122 120
-205 241 -242 74 -22 242 -22 330 2 70 19 210 84 249 116 l23 20 -47 108 c-26
59 -52 113 -58 120 -15 19 -42 15 -100 -14 -63 -33 -139 -37 -179 -10 -15 10
-35 38 -44 62 -20 51 -24 -1 53 622 l56 462 219 0 218 0 4 23 c3 12 10 67 16
122 6 55 13 112 16 128 l6 27 -222 0 -221 0 6 33 c7 41 65 510 65 526 0 19
-250 15 -278 -5z"/>
<path d="M4960 6333 c-368 -24 -629 -276 -631 -608 -1 -140 21 -203 99 -287
60 -64 119 -96 307 -168 87 -33 173 -69 191 -81 160 -99 125 -319 -63 -389
-72 -27 -202 -27 -278 -1 -29 11 -89 42 -131 70 -127 83 -167 71 -263 -79 -28
-43 -51 -83 -51 -88 0 -18 86 -89 151 -125 232 -130 571 -124 807 14 209 123
344 395 303 613 -16 86 -47 143 -111 206 -64 64 -141 106 -329 180 -187 75
-248 125 -258 214 -4 36 0 57 21 100 31 63 79 99 163 121 114 30 200 17 338
-49 148 -72 157 -70 248 59 l69 95 -24 21 c-146 127 -355 196 -558 182z"/>
<path d="M3350 6315 c-353 -71 -635 -364 -742 -770 -29 -112 -31 -132 -32
-300 -1 -210 8 -258 80 -403 82 -168 220 -280 409 -333 100 -28 308 -30 422
-5 173 38 336 127 485 266 l78 71 -62 72 c-33 40 -72 78 -86 86 -41 22 -89 6
-195 -65 -137 -92 -212 -118 -347 -118 -81 -1 -117 4 -160 19 -75 27 -150 102
-178 178 -23 62 -48 236 -35 247 4 4 69 15 143 24 402 52 679 144 822 275 147
134 181 369 77 533 -69 107 -200 192 -344 223 -85 18 -246 18 -335 0z m265
-305 c57 -28 85 -74 85 -138 0 -71 -19 -112 -72 -155 -56 -46 -130 -79 -249
-111 -85 -23 -311 -66 -345 -66 -18 0 -12 27 28 131 72 191 209 327 361 359
58 12 144 3 192 -20z"/>
<path d="M5810 6300 c0 -6 -32 -279 -71 -608 -62 -521 -70 -612 -65 -712 7
-175 52 -295 143 -381 217 -210 605 -127 863 185 34 42 63 76 64 76 0 0 1 -63
1 -139 0 -154 5 -169 72 -197 37 -16 293 -20 293 -5 0 12 208 1739 213 1769
l4 22 -216 -2 -216 -3 -56 -470 c-32 -262 -63 -489 -72 -512 -68 -182 -183
-342 -304 -423 -150 -101 -292 -91 -344 24 -33 73 -28 135 76 1004 25 205 45
375 45 377 0 3 -97 5 -215 5 -142 0 -215 -4 -215 -10z"/>
<path d="M9890 6304 c0 -3 -47 -400 -105 -881 -58 -481 -105 -883 -105 -894 0
-18 9 -19 209 -19 l209 0 6 38 c3 20 51 415 106 877 55 462 102 850 104 863
l3 22 -213 0 c-118 0 -214 -3 -214 -6z"/>
</g>
</svg>
