<?xml version="1.0" encoding="UTF-8" standalone="no"?>
<!DOCTYPE svg PUBLIC "-//W3C//DTD SVG 1.1//EN" "http://www.w3.org/Graphics/SVG/1.1/DTD/svg11.dtd">
<svg xmlns="http://www.w3.org/2000/svg" version="1.1" viewBox="0.00 0.00 1080.00 1080.00">
<ellipse fill="#00bbff" cx="0.00" cy="0.00" transform="translate(599.10,343.64) rotate(40.1)" rx="10.80" ry="10.46"/>
<path fill="#ff0000" d="
  M 726.67 401.88
  A 0.80 0.80 0.0 0 0 725.77 402.69
  L 726.18 420.53
  Q 726.19 420.99 725.73 420.99
  L 724.01 420.99
  A 0.46 0.45 -88.8 0 1 723.56 420.51
  L 724.28 403.54
  Q 724.36 401.71 722.54 401.93
  L 707.17 403.84
  A 0.34 0.34 0.0 0 1 706.80 403.40
  L 708.10 398.98
  A 2.14 2.14 0.0 0 0 707.43 396.72
  L 691.57 383.22
  Q 691.01 382.74 691.67 382.42
  L 694.35 381.12
  A 1.83 1.83 0.0 0 0 695.32 379.01
  L 692.61 368.65
  Q 692.45 368.04 693.06 368.18
  L 701.52 370.06
  A 1.85 1.84 13.6 0 0 703.70 368.73
  L 704.61 365.36
  Q 704.81 364.61 705.31 365.20
  L 712.67 373.82
  A 1.28 1.27 -51.7 0 0 714.78 373.57
  Q 715.17 372.79 714.94 371.54
  Q 713.35 363.05 711.87 354.53
  Q 711.78 354.01 712.27 354.21
  C 714.42 355.11 717.93 357.98 719.19 355.46
  Q 721.99 349.92 724.78 344.49
  A 0.25 0.25 0.0 0 1 725.22 344.49
  L 730.85 355.53
  A 1.93 1.93 0.0 0 0 733.46 356.36
  L 737.65 354.15
  Q 738.24 353.84 738.12 354.50
  L 734.93 372.72
  A 1.21 1.20 23.2 0 0 735.40 373.88
  Q 736.78 374.87 738.03 373.26
  Q 741.28 369.08 744.78 365.11
  Q 745.19 364.65 745.35 365.24
  L 746.37 368.97
  A 1.60 1.60 0.0 0 0 748.26 370.11
  L 756.92 368.18
  Q 757.55 368.03 757.39 368.67
  L 754.60 379.32
  A 1.45 1.45 0.0 0 0 755.37 380.99
  L 758.51 382.50
  A 0.36 0.35 37.7 0 1 758.59 383.09
  L 742.52 396.76
  Q 741.51 397.62 741.88 398.89
  L 743.19 403.39
  A 0.34 0.33 -5.1 0 1 742.83 403.82
  L 726.67 401.88
  Z"
/>
<path fill="#00bbff" d="
  M 658.00 365.96
  C 690.68 397.59 653.35 435.90 619.18 435.60
  C 595.94 435.39 570.98 416.08 575.43 390.26
  A 1.24 1.23 -84.4 0 1 576.68 389.23
  Q 582.65 389.37 588.02 389.73
  Q 591.73 389.99 591.74 394.25
  C 591.75 407.63 602.47 417.59 615.75 417.64
  C 627.71 417.68 640.71 409.59 647.43 399.94
  C 654.96 389.14 650.36 377.13 639.21 371.57
  C 635.21 369.57 628.13 370.90 629.41 364.12
  Q 630.22 359.79 631.06 355.70
  A 1.16 1.16 0.0 0 1 632.28 354.77
  Q 647.65 355.94 658.00 365.96
  Z"
/>
<ellipse fill="#00bbff" cx="0.00" cy="0.00" transform="translate(567.31,371.72) rotate(40.6)" rx="10.77" ry="10.46"/>
<path fill="#00bbff" d="
  M 827.53 368.32
  L 795.91 629.18
  A 0.34 0.34 0.0 0 1 795.57 629.48
  L 753.40 629.50
  A 0.34 0.34 0.0 0 1 753.07 629.12
  L 784.69 368.24
  A 0.34 0.34 0.0 0 1 785.03 367.94
  L 827.20 367.94
  A 0.34 0.34 0.0 0 1 827.53 368.32
  Z"
/>
<path fill="#00bbff" d="
  M 1026.59 371.12
  C 1045.27 380.43 1048.72 404.31 1031.50 417.64
  C 1018.91 427.38 1002.09 424.45 993.48 410.89
  Q 984.15 396.18 993.50 381.45
  C 1000.69 370.12 1014.16 364.93 1026.59 371.12
  Z"
/>
<path fill="#00bbff" d="
  M 106.25 529.56
  L 94.03 629.01
  Q 93.98 629.48 93.50 629.48
  L 48.99 629.50
  Q 48.48 629.50 48.54 628.99
  L 79.63 375.38
  A 0.43 0.43 0.0 0 1 80.06 374.99
  Q 117.37 374.97 154.75 375.01
  C 183.35 375.04 217.97 383.34 230.15 412.56
  C 237.21 429.48 235.96 451.39 229.77 468.71
  C 220.47 494.75 200.94 510.69 175.33 519.99
  A 0.40 0.40 0.0 0 0 175.24 520.70
  Q 183.21 525.98 187.46 534.73
  Q 210.31 581.80 232.93 629.02
  A 0.36 0.35 77.8 0 1 232.61 629.53
  Q 212.00 629.35 191.26 629.29
  Q 180.52 629.26 176.18 619.69
  Q 157.63 578.80 139.11 537.90
  Q 135.07 528.96 125.51 528.93
  Q 116.10 528.90 106.72 529.14
  Q 106.30 529.15 106.25 529.56
  Z
  M 121.05 410.75
  L 110.40 496.25
  Q 110.37 496.48 110.63 496.48
  Q 126.18 496.64 141.62 496.24
  C 172.80 495.41 191.42 472.23 189.43 441.77
  C 188.06 420.70 172.14 410.83 152.50 410.25
  Q 140.22 409.89 121.62 410.24
  Q 121.11 410.25 121.05 410.75
  Z"
/>
<path fill="#00bbff" d="
  M 915.04 450.34
  L 957.75 450.33
  Q 958.17 450.33 958.12 450.75
  L 954.52 481.02
  Q 954.46 481.50 953.98 481.50
  L 911.00 481.50
  A 0.43 0.43 0.0 0 0 910.57 481.87
  Q 904.23 531.37 898.72 581.02
  C 897.12 595.38 908.98 601.21 920.75 594.79
  C 924.09 592.97 929.99 588.46 932.73 594.01
  Q 935.36 599.35 942.41 615.82
  Q 942.61 616.28 942.21 616.59
  Q 922.03 632.28 896.25 632.19
  C 879.67 632.13 864.80 624.97 858.43 609.00
  C 854.93 600.20 854.90 589.93 856.03 580.50
  Q 861.87 531.61 868.07 481.97
  A 0.37 0.36 -86.5 0 0 867.71 481.56
  Q 859.98 481.40 852.00 481.33
  Q 843.84 481.25 844.69 473.01
  Q 845.59 464.31 846.39 455.81
  A 1.00 0.99 -2.3 0 1 847.22 454.92
  L 873.64 450.33
  A 0.55 0.54 -85.6 0 0 874.08 449.94
  Q 881.25 425.48 888.48 401.00
  Q 890.73 393.38 899.23 393.40
  Q 910.19 393.44 921.11 393.58
  Q 921.56 393.59 921.50 394.03
  L 914.61 449.85
  Q 914.55 450.34 915.04 450.34
  Z"
/>
<path fill="#00bbff" d="
  M 498.61 566.73
  C 493.91 561.09 486.02 557.80 479.23 555.48
  C 456.28 547.61 431.99 539.07 432.21 509.63
  C 432.56 463.21 473.94 440.71 516.26 447.27
  Q 537.33 450.54 554.15 466.82
  Q 554.48 467.14 554.21 467.51
  Q 549.02 474.86 543.74 482.12
  Q 540.82 486.14 538.62 487.22
  C 533.41 489.78 525.11 484.14 520.36 481.65
  Q 508.16 475.26 493.14 476.94
  C 482.03 478.18 471.14 484.63 470.43 496.66
  C 469.78 507.77 478.59 513.32 487.34 517.15
  C 500.46 522.89 519.03 527.65 530.32 539.33
  C 540.28 549.64 542.57 562.57 540.34 576.88
  C 534.95 611.54 503.29 631.84 469.50 632.12
  C 448.22 632.30 427.45 626.00 413.13 610.26
  A 0.44 0.43 -51.2 0 1 413.08 609.73
  Q 418.22 601.71 423.29 593.75
  C 427.17 587.66 435.06 585.23 441.15 589.82
  C 452.08 598.06 461.63 602.81 476.11 601.81
  C 485.61 601.16 494.28 597.48 499.30 589.38
  C 503.43 582.72 503.93 573.12 498.61 566.73
  Z"
/>
<path fill="#00bbff" d="
  M 298.93 554.05
  C 297.90 574.63 304.91 595.31 328.25 598.05
  Q 344.88 600.01 359.62 593.08
  C 367.06 589.58 373.08 583.44 380.74 580.03
  Q 388.66 576.50 394.13 582.85
  Q 399.58 589.18 404.90 595.37
  A 0.69 0.69 0.0 0 1 404.87 596.30
  C 386.90 614.79 366.29 628.48 340.01 631.36
  C 327.25 632.76 313.62 632.27 301.66 628.12
  C 264.36 615.20 252.96 578.07 257.45 542.01
  C 260.72 515.70 270.44 493.17 288.27 474.26
  C 307.33 454.06 334.10 443.91 361.67 446.99
  C 377.57 448.77 391.54 455.14 401.33 467.65
  Q 408.72 477.08 409.02 490.01
  Q 409.68 517.83 385.89 531.59
  C 360.55 546.24 328.04 550.62 299.42 553.54
  Q 298.95 553.59 298.93 554.05
  Z
  M 303.01 525.59
  C 314.07 524.39 325.20 522.32 336.00 519.68
  C 348.81 516.55 368.77 510.64 370.15 494.50
  C 371.14 482.93 360.67 476.44 350.23 476.60
  C 323.53 477.01 308.02 501.64 302.58 525.12
  Q 302.46 525.65 303.01 525.59
  Z"
/>
<path fill="#00bbff" d="
  M 674.29 595.23
  Q 674.35 594.03 673.64 595.00
  C 665.27 606.36 655.91 615.98 643.61 623.09
  C 623.65 634.64 594.42 637.15 578.45 617.62
  C 566.63 603.18 565.27 582.30 567.32 564.61
  Q 573.73 509.43 580.88 449.42
  A 0.63 0.63 0.0 0 1 581.51 448.86
  L 623.98 448.86
  Q 624.53 448.86 624.46 449.41
  Q 614.41 530.72 610.00 572.48
  Q 609.48 577.40 610.93 584.26
  C 613.78 597.75 628.44 598.65 638.78 594.04
  C 657.45 585.71 669.74 565.53 676.51 547.19
  Q 678.15 542.74 678.82 537.05
  Q 684.00 493.17 689.28 449.30
  Q 689.33 448.86 689.77 448.86
  L 732.39 448.86
  Q 732.91 448.86 732.85 449.38
  L 711.11 628.75
  A 0.81 0.80 3.2 0 1 710.31 629.46
  Q 699.11 629.37 687.50 629.35
  C 680.55 629.34 673.75 624.43 673.77 616.74
  Q 673.79 605.61 674.29 595.23
  Z"
/>
<path fill="#00bbff" d="
  M 967.25 629.14
  L 988.84 449.15
  A 0.32 0.32 0.0 0 1 989.15 448.87
  L 1031.58 448.87
  A 0.32 0.32 0.0 0 1 1031.90 449.23
  L 1010.31 629.22
  A 0.32 0.32 0.0 0 1 1010.00 629.50
  L 967.57 629.50
  A 0.32 0.32 0.0 0 1 967.25 629.14
  Z"
/>
</svg>
